<?xml version="1.0" ?><!-- Uploaded to: SVG Repo, www.svgrepo.com, Generator: SVG Repo Mixer Tools -->
<svg fill="#000000" width="800px" height="800px" viewBox="0 0 32 32" xmlns="http://www.w3.org/2000/svg"><title/><path d="M26,9H22.28a3.966,3.966,0,0,0,1.35-1.3,2.4,2.4,0,0,0-.41-3.07,2.925,2.925,0,0,0-1.575-.591,6.332,6.332,0,0,0-4.53,1.249A5.9,5.9,0,0,0,16,6.421a5.9,5.9,0,0,0-1.114-1.134,6.339,6.339,0,0,0-4.531-1.249,2.923,2.923,0,0,0-1.574.59A2.4,2.4,0,0,0,8.37,7.7,3.965,3.965,0,0,0,9.72,9H6a1,1,0,0,0-.98.8l-1,5A1,1,0,0,0,5,16H6V28a1,1,0,0,0,1,1H25a1,1,0,0,0,1-1V16h1a1,1,0,0,0,.98-1.2l-1-5A1,1,0,0,0,26,9Zm-.22,5H20V11h5.18ZM14,11h4v3H14Zm4.333-4.128A4.372,4.372,0,0,1,20.96,6a4.179,4.179,0,0,1,.462.025,1.049,1.049,0,0,1,.521.144.484.484,0,0,1-.033.507,2.923,2.923,0,0,1-1.14.888,14.224,14.224,0,0,1-3.7,1.336c-.012-.069-.019-.138-.034-.206A3.889,3.889,0,0,1,18.333,6.872Zm-8.277-.7a1.047,1.047,0,0,1,.521-.144A4.173,4.173,0,0,1,11.04,6a4.373,4.373,0,0,1,2.627.872,3.89,3.89,0,0,1,1.292,1.822c-.014.068-.022.137-.034.206a14.22,14.22,0,0,1-3.7-1.336,2.921,2.921,0,0,1-1.141-.888A.482.482,0,0,1,10.057,6.169ZM6.82,11H12v3H6.22ZM8,16h5V27H8Zm7,11V16h2V27Zm9,0H19V16h5Z"/></svg>